<?xml version="1.0" encoding="iso-8859-1"?>
<!-- Generator: Adobe Illustrator 19.0.0, SVG Export Plug-In . SVG Version: 6.00 Build 0)  -->
<svg version="1.1" id="Capa_1" xmlns="http://www.w3.org/2000/svg" xmlns:xlink="http://www.w3.org/1999/xlink" x="0px" y="0px"
	 viewBox="0 0 512.001 512.001" style="enable-background:new 0 0 512.001 512.001;" xml:space="preserve">
<g>
	<g>
		<path d="M471.919,385.371v-73.258c0-4.142-3.358-7.5-7.5-7.5h-80.161c-4.142,0-7.5,3.358-7.5,7.5v72.662h-17.065v-72.662
			c0-4.142-3.358-7.5-7.5-7.5h-80.161c-4.142,0-7.5,3.358-7.5,7.5v72.662h-129.29v-72.662c0-4.142-3.358-7.5-7.5-7.5H47.581
			c-4.142,0-7.5,3.358-7.5,7.5v73.258C17.396,388.979,0,408.671,0,432.355c0,26.236,21.345,47.581,47.581,47.581h336.681
			c4.142,0,7.5-3.358,7.5-7.5c0-4.142-3.358-7.5-7.5-7.5H82.209c8.021-8.521,12.952-19.982,12.952-32.581
			s-4.931-24.06-12.952-32.581h26.704c-2.979,4.814-4.703,10.483-4.703,16.548c0,17.396,14.153,31.548,31.549,31.548
			c17.396,0,31.548-14.152,31.548-31.548c0-6.065-1.725-11.734-4.703-16.548h26.471c-2.979,4.814-4.703,10.483-4.703,16.548
			c0,17.396,14.152,31.548,31.548,31.548s31.548-14.152,31.548-31.548c0-6.065-1.725-11.734-4.703-16.548h26.471
			c-2.979,4.814-4.703,10.483-4.703,16.548c0,17.396,14.152,31.548,31.548,31.548s31.548-14.152,31.548-31.548
			c0-6.065-1.725-11.734-4.703-16.548h26.471c-2.979,4.814-4.703,10.483-4.703,16.548c0,17.396,14.152,31.548,31.548,31.548
			s31.549-14.152,31.549-31.548c0-6.065-1.725-11.734-4.703-16.548h26.704c-8.021,8.521-12.952,19.982-12.952,32.581
			s4.931,24.06,12.952,32.581h-13.469c-4.142,0-7.5,3.358-7.5,7.5c0,4.142,3.358,7.5,7.5,7.5h48.097
			c26.236,0,47.581-21.345,47.581-47.581C512,408.671,494.604,388.979,471.919,385.371z M47.58,464.936
			c-17.965,0-32.58-14.616-32.58-32.581c0-17.965,14.616-32.581,32.581-32.581c17.965,0,32.58,14.616,32.58,32.581
			C80.161,450.32,65.545,464.936,47.58,464.936z M55.081,384.775v-65.162h25.081v9.678c0,4.142,3.358,7.5,7.5,7.5
			c4.142,0,7.5-3.358,7.5-7.5v-9.678h25.081v65.162H55.081z M135.759,432.871c-9.125,0-16.549-7.423-16.549-16.548
			s7.424-16.548,16.549-16.548s16.548,7.423,16.548,16.548S144.884,432.871,135.759,432.871z M215.92,432.871
			c-9.125,0-16.548-7.423-16.548-16.548s7.423-16.548,16.548-16.548s16.548,7.423,16.548,16.548S225.045,432.871,215.92,432.871z
			 M296.081,432.871c-9.125,0-16.548-7.423-16.548-16.548s7.423-16.548,16.548-16.548s16.548,7.423,16.548,16.548
			S305.206,432.871,296.081,432.871z M344.694,384.774h-65.162v-65.162h25.081v9.678c0,4.142,3.358,7.5,7.5,7.5
			c4.142,0,7.5-3.358,7.5-7.5v-9.678h25.081V384.774z M376.242,432.871c-9.125,0-16.548-7.423-16.548-16.548
			s7.423-16.548,16.548-16.548s16.549,7.423,16.549,16.548S385.367,432.871,376.242,432.871z M391.759,384.775v-65.162h25.08v9.678
			c0,4.142,3.358,7.5,7.5,7.5c4.142,0,7.5-3.358,7.5-7.5v-9.678h25.081v65.162H391.759z M464.419,464.936
			c-17.965,0-32.581-14.616-32.581-32.581c0-17.965,14.616-32.581,32.581-32.581c17.965,0,32.581,14.616,32.581,32.581
			C497,450.32,482.384,464.936,464.419,464.936z"/>
	</g>
</g>
<g>
	<g>
		<path d="M111.709,48.097H7.5c-4.142,0-7.5,3.358-7.5,7.5c0,4.142,3.358,7.5,7.5,7.5h104.209c4.142,0,7.5-3.358,7.5-7.5
			C119.209,51.455,115.851,48.097,111.709,48.097z"/>
	</g>
</g>
<g>
	<g>
		<path d="M504.5,48.097H262.267c-3.139-9.308-11.946-16.032-22.3-16.032h-80.161c-12.976,0-23.532,10.557-23.532,23.532
			c0,12.975,10.557,23.532,23.533,23.532h16.548v120.758c0,3.757,0.89,7.309,2.462,10.463l-19.619,19.619
			c-4.444,4.445-6.892,10.354-6.892,16.639v97.569c0,4.142,3.358,7.5,7.5,7.5h80.161c4.142,0,7.5-3.358,7.5-7.5v-97.569
			c0-6.286-2.448-12.195-6.893-16.64l-19.618-19.618c1.573-3.154,2.463-6.706,2.463-10.463V79.129h16.548
			c10.354,0,19.16-6.724,22.3-16.032H504.5c4.142,0,7.5-3.358,7.5-7.5C512,51.455,508.642,48.097,504.5,48.097z M159.807,64.128
			c-4.704,0-8.532-3.828-8.532-8.532s3.827-8.532,8.532-8.532s8.532,3.828,8.532,8.532C168.339,60.3,164.511,64.128,159.807,64.128z
			 M181.731,47.065h36.313c-1.034,2.647-1.608,5.523-1.608,8.532c0,3.009,0.574,5.885,1.608,8.532h-36.313
			c1.034-2.647,1.608-5.523,1.608-8.532C183.339,52.588,182.765,49.712,181.731,47.065z M199.887,160.323
			c-3.009,0-5.885,0.574-8.532,1.608V79.129h17.064v82.802C205.772,160.897,202.896,160.323,199.887,160.323z M208.419,183.855
			v16.032c0,4.705-3.828,8.532-8.532,8.532s-8.532-3.828-8.532-8.532v-16.032c0-4.705,3.828-8.532,8.532-8.532
			S208.419,179.151,208.419,183.855z M232.469,336.677L232.469,336.677h-65.162v-65.161h25.081v9.677c0,4.142,3.358,7.5,7.5,7.5
			c4.142,0,7.5-3.358,7.5-7.5v-9.677h25.081V336.677z M229.969,240.574c1.611,1.613,2.499,3.756,2.499,6.034v9.908h-65.161v-9.908
			c0-2.279,0.888-4.422,2.499-6.033l19.619-19.619c3.154,1.573,6.706,2.463,10.463,2.463s7.309-0.89,10.463-2.463L229.969,240.574z
			 M239.968,64.129c-4.705,0-8.532-3.828-8.532-8.532c0-4.704,3.828-8.532,8.532-8.532s8.532,3.828,8.532,8.532
			C248.5,60.301,244.672,64.129,239.968,64.129z"/>
	</g>
</g>
<g>
</g>
<g>
</g>
<g>
</g>
<g>
</g>
<g>
</g>
<g>
</g>
<g>
</g>
<g>
</g>
<g>
</g>
<g>
</g>
<g>
</g>
<g>
</g>
<g>
</g>
<g>
</g>
<g>
</g>
</svg>
