<svg height="511pt" viewBox="-42 1 511 511.99884" width="511pt" xmlns="http://www.w3.org/2000/svg"><path d="m324.765625 332.800781-68.265625.050781v-25.652343c-.054688-.488281-.152344-.96875-.289062-1.441407l.773437-.367187c1.058594.855469 2.152344 1.65625 3.296875 2.433594 20.042969 13.40625 46.984375 9.425781 62.292969-9.207031 22.648437-1.148438 41.28125-18.238282 44.371093-40.707032 24.558594-13.730468 33.332032-44.769531 19.597657-69.328125-2.96875-5.308593-6.867188-10.042969-11.507813-13.980469 15.523438-21.773437 11.554688-51.847656-9.085937-68.847656.976562-3.886718 1.472656-7.878906 1.484375-11.886718-.03125-25.679688-19.054688-47.375-44.511719-50.765626-5.492187-20.386718-23.976563-34.554687-45.089844-34.566406-5.507812.007813-10.96875 1.007813-16.117187 2.960938-7.472656-3.351563-15.910156-3.851563-23.722656-1.410156-13.191407-13.339844-34.699219-13.464844-48.042969-.273438-.09375.089844-.183594.183594-.273438.273438-7.816406-2.441407-16.253906-1.941407-23.722656 1.410156-5.152344-1.953125-10.613281-2.953125-16.121094-2.960938-21.113281.011719-39.59375 14.179688-45.089843 34.566406-25.453126 3.390626-44.476563 25.085938-44.507813 50.765626.003906 4.007812.5 8 1.476563 11.886718-20.640626 17-24.613282 47.074219-9.089844 68.847656-21.457032 18.199219-24.09375 50.347657-5.890625 71.804688 3.933593 4.636719 8.671875 8.535156 13.980469 11.503906 3.089843 22.46875 21.722656 39.558594 44.375 40.707032 15.308593 18.628906 42.25 22.605468 62.292968 9.195312 1.175782-.792969 2.328125-1.628906 3.410156-2.558594l-.21875-.273437c.304688.144531.605469.308593.910157.445312-.167969.578125-.273438 1.171875-.3125 1.773438v25.890625l-67.515625-.289063h-.4375c-56.523438.128907-102.300782 45.9375-102.398438 102.457031l-.316406 76.742188h426.664062v-.855469h.386719v-74.09375c.359375-57.152343-45.632812-103.800781-102.785156-104.25zm-183.464844-34.132812c-10.039062-.011719-19.398437-5.0625-24.917969-13.449219l-2.671874-4.046875-4.847657.230469c-.570312.019531-1.144531.085937-1.707031.199218-16.234375-.097656-29.441406-13.097656-29.796875-29.332031l-.058594-5.476562-5.019531-2.183594c-17.214844-7.394531-25.179688-27.347656-17.785156-44.566406 3.007812-7 8.285156-12.785157 14.976562-16.421875l10.242188-5.683594-8.535156-8.023438c-13.738282-12.691406-14.582032-34.121093-1.886719-47.859374 2.0625-2.234376 4.421875-4.183594 7.007812-5.789063l5.90625-3.726563-2.5-6.539062c-6.835937-17.425781 1.75-37.09375 19.179688-43.929688 3.839843-1.503906 7.925781-2.296874 12.050781-2.335937l8.535156.042969.851563-7.597656c1.589843-16.191407 16.003906-28.027344 32.195312-26.4375 3.515625.34375 6.941407 1.320312 10.113281 2.878906l4.191407 2.011718 3.96875-2.4375c5.226562-3.335937 11.886719-3.445312 17.226562-.292968l7.074219 4.019531 4.34375-6.878906c4.953125-7.9375 15.40625-10.359375 23.347656-5.40625 2.191406 1.367187 4.042969 3.21875 5.410156 5.40625l4.34375 6.878906 7.074219-4.019531c5.339844-3.152344 11.996094-3.042969 17.226563.292968l3.96875 2.4375 4.222656-2.011718c14.601562-7.175782 32.253906-1.15625 39.429688 13.445312 1.558593 3.171875 2.535156 6.597656 2.878906 10.113282l.855468 7.597656h7.628907l.9375-.042969c18.71875.15625 33.761719 15.460937 33.605469 34.179687-.035157 4.136719-.828126 8.234376-2.339844 12.085938l-2.5 6.535156 5.90625 3.730469c15.890625 9.867187 20.773437 30.75 10.90625 46.640625-1.605469 2.585938-3.550782 4.941406-5.789063 7.007812l-8.53125 8.023438 10.238281 5.683594c16.464844 8.945312 22.5625 29.542968 13.617188 46.007812-3.636719 6.695313-9.421875 11.972656-16.425781 14.976563l-5.015625 2.1875-.109375 5.476562c-.335938 16.226563-13.535157 29.234375-29.765625 29.328125-.566406-.089844-1.136719-.148437-1.707032-.167968l-4.847656-.230469-2.667968 4.042969c-8.203126 12.441406-24.316407 16.933593-37.769532 10.53125 19.585938-13.980469 33.628906-34.402344 39.679688-57.695313h11.902344c14.140624 0 25.601562-11.460937 25.601562-25.597656v-8.535157c0-14.136718-11.460938-25.601562-25.601562-25.601562h-8.53125v-24.746094c-.042969-.285156-.101563-.570312-.179688-.851562-.054688-.578125-.167969-1.152344-.34375-1.707032-.164062-.511718-.382812-1.007812-.648438-1.476562-.242187-.464844-.527343-.902344-.851562-1.3125-.378906-.449219-.804688-.855469-1.269531-1.214844-.207031-.21875-.421875-.425781-.652344-.621094l-94.214844-59.734374c-2.792969-1.773438-6.363281-1.773438-9.15625 0l-93.515625 59.734374c-.257812.164063-.402344.425782-.632812.613282-.886719.695312-1.617188 1.566406-2.148438 2.5625-.261718.472656-.476562.96875-.640625 1.484375-.175781.554687-.289062 1.125-.34375 1.707031-.074219.28125-.136719.5625-.175781.851562v24.746094h-8.535156c-14.136719 0-25.601563 11.460938-25.601563 25.601563v8.53125c0 14.140625 11.464844 25.601562 25.601563 25.601562h11.902344c6.019531 23.160157 19.949218 43.488281 39.375 57.464844-4.128907 2.046875-8.675782 3.105469-13.285157 3.089844zm175.28125-77.652344v-25.601563h8.535157c4.710937 0 8.53125 3.820313 8.53125 8.53125v8.535157c0 4.710937-3.820313 8.535156-8.53125 8.535156zm-204.800781-25.601563v25.601563h-8.53125c-4.714844 0-8.535156-3.824219-8.535156-8.535156v-8.535157c0-4.710937 3.820312-8.53125 8.535156-8.53125zm17.066406 17.066407v-54.203125l84.984375-54.289063 85.683594 54.304688v54.1875c0 47.128906-38.203125 85.332031-85.332031 85.332031s-85.335938-38.203125-85.335938-85.332031zm110.585938 99.125v29.726562c0 14.140625-11.460938 25.601563-25.601563 25.601563-14.136719 0-25.597656-11.460938-25.597656-25.601563v-29.90625c16.753906 4.546875 34.410156 4.605469 51.199219.179688zm-221.515625 182.472656v-16.210937h59.550781c.671875 5.523437 1.945312 10.960937 3.789062 16.210937zm136.179687.855469h-54.015625c-8.234375-16.773438-8.191406-36.425782.121094-53.164063l1.800781-3.609375c.589844-1.183594.898438-2.488281.894532-3.8125v-25.601562c0-4.710938-3.820313-8.53125-8.53125-8.53125-4.714844 0-8.535157 3.820312-8.535157 8.53125v23.59375l-.894531 1.800781c-4.148438 8.347656-6.738281 17.382813-7.636719 26.660156h-59.527343l.117187-25.457031c.027344-22.75 9.117187-44.550781 25.257813-60.585938 15.90625-15.96875 37.527343-24.929687 60.066406-24.890624h.367187l50.515625.214843zm102.402344 0h-85.332031v-144.777344h.9375c4.890625 23.050781 27.542969 37.773438 50.59375 32.878906 16.582031-3.519531 29.503906-16.515625 32.929687-33.117187h.871094zm153.640625-.855469h-55.464844c1.855469-5.535156 3.097657-11.257813 3.703125-17.066406h51.839844zm.164063-34.132813h-51.917969c-.917969-8.871093-3.328125-17.527343-7.132813-25.597656l-.855468-1.808594.417968-23.605468c.085938-4.710938-3.667968-8.601563-8.382812-8.683594-4.710938-.082031-8.601563 3.671875-8.683594 8.386719l-.449219 25.597656c-.015625 1.316406.277344 2.617187.851563 3.796875l1.707031 3.609375c7.875 16.882813 7.925781 36.371094.144531 53.292969h-62.4375v-145.023438l51.199219-.042968c47.679687.464843 85.992187 39.425781 85.648437 87.109374zm0 0"/><path d="m205.300781 460.800781h17.066407v17.066407h-17.066407zm0 0"/><path d="m205.300781 426.667969h17.066407v17.066406h-17.066407zm0 0"/><path d="m171.515625 186.878906c-4.710937 0-8.53125 3.820313-8.53125 8.535156v8.53125c0 4.714844 3.820313 8.535157 8.53125 8.535157 4.714844 0 8.535156-3.820313 8.535156-8.535157v-8.53125c0-4.714843-3.820312-8.535156-8.535156-8.535156zm0 0"/><path d="m256.847656 212.480469c4.714844 0 8.535156-3.820313 8.535156-8.535157v-8.53125c0-4.714843-3.820312-8.535156-8.535156-8.535156-4.710937 0-8.53125 3.820313-8.53125 8.535156v8.53125c0 4.714844 3.820313 8.535157 8.53125 8.535157zm0 0"/><path d="m213.832031 196.265625c-4.710937 0-8.53125 3.820313-8.53125 8.535156v17.066407c0 4.710937 3.820313 8.53125 8.53125 8.53125h8.535157c4.710937 0 8.53125-3.820313 8.53125-8.53125 0-4.714844-3.820313-8.535157-8.53125-8.535157v-8.53125c0-4.714843-3.820313-8.535156-8.535157-8.535156zm0 0"/><path d="m196.765625 179.199219h34.132813c4.714843 0 8.535156-3.820313 8.535156-8.53125 0-4.714844-3.820313-8.535157-8.535156-8.535157h-34.132813c-4.710937 0-8.53125 3.820313-8.53125 8.535157 0 4.710937 3.820313 8.53125 8.53125 8.53125zm0 0"/><path d="m196.765625 145.066406h34.132813c4.714843 0 8.535156-3.820312 8.535156-8.53125 0-4.714844-3.820313-8.535156-8.535156-8.535156h-34.132813c-4.710937 0-8.53125 3.820312-8.53125 8.535156 0 4.710938 3.820313 8.53125 8.53125 8.53125zm0 0"/><path d="m166.449219 231.296875-17.070313-8.535156c-4.214844-2.105469-9.34375-.394531-11.449218 3.824219-2.109376 4.21875-.394532 9.34375 3.820312 11.453124l12.347656 6.167969v11.792969c0 4.714844 3.824219 8.535156 8.535156 8.535156 4.710938 0 8.535157-3.820312 8.535157-8.535156v-17.066406c0-3.234375-1.828125-6.191406-4.71875-7.636719zm0 0"/><path d="m256.5 238.933594v17.066406c0 4.714844 3.820312 8.535156 8.53125 8.535156 4.714844 0 8.535156-3.820312 8.535156-8.535156v-11.792969l12.347656-6.167969c4.21875-2.109374 5.929688-7.234374 3.824219-11.453124-2.109375-4.21875-7.234375-5.929688-11.453125-3.824219l-17.066406 8.535156c-2.894531 1.445313-4.722656 4.402344-4.71875 7.636719zm0 0"/><path d="m238.578125 243.652344c-2.101563-4.21875-7.226563-5.929688-11.445313-3.824219h-.003906c-8.347656 4.15625-18.160156 4.15625-26.507812 0-4.214844-2.105469-9.34375-.394531-11.449219 3.824219-2.109375 4.21875-.394531 9.34375 3.820313 11.453125 13.152343 6.542969 28.613281 6.542969 41.765624 0 4.214844-2.105469 5.929688-7.230469 3.824219-11.445313 0-.003906 0-.003906-.003906-.007812zm0 0"/></svg>