<svg height="512" viewBox="0 0 60 60" width="512" xmlns="http://www.w3.org/2000/svg"><g id="Page-1" fill="none" fill-rule="evenodd"><g id="031---Savings" fill="rgb(0,0,0)" fill-rule="nonzero"><path id="Shape" d="m2 60h28c1.1045695 0 2-.8954305 2-2v-9c-.0060624-5.5203344-4.4796656-9.9939376-10-10h-1.549c-.3999781-.4937501-.7607439-1.0180139-1.079-1.568.8292152-.2963637 1.5710832-.795526 2.158-1.452 3.6479015-.2813584 6.4656962-3.3212667 6.47-6.98.5018812-.0012517.9992177-.0951591 1.467-.277 1.1592823-.4420691 2.0413798-1.4061101 2.379-2.6.0962373-.3664162.1423242-.7441939.137-1.123h.017v-5c-.0052983-5.8194854-3.1683758-11.1776873-8.261-13.994-.9055783-3.53430554-4.0905226-6.00607287-7.739-6.00607287s-6.83342172 2.47176733-7.739 6.00607287c-5.09262422 2.8163127-8.25570166 8.1745146-8.261 13.994v5h.017c-.00523368.3784719.04085243.7559071.137 1.122.33755516 1.1935929 1.21919297 2.1575367 2.378 2.6.46808799.1821045.96573942.2763464 1.468.278.00448121 3.7115372 2.90156963 6.776128 6.607 6.989.64001.5244158 1.3481161.9597076 2.105 1.294-.3397706.6033537-.7287576 1.1776363-1.163 1.717h-1.549c-5.52033443.0060624-9.99393763 4.4796656-10 10v9c0 1.1045695.8954305 2 2 2zm10.88-15.418c2.0425741.5580175 4.1974259.5580175 6.24 0-.027 5.426-.662 11.628-2.52 13.418h-1.2c-1.856-1.789-2.492-7.992-2.52-13.418zm17.12 4.418v9h-4v-11c0-.5522847-.4477153-1-1-1s-1 .4477153-1 1v11h-4.969c2.328-4.425 2.165-13.684 2.022-17h.947c4.4162219.0049599 7.9950401 3.5837781 8 8zm-14-47c2.078351.00164978 4.0078269 1.07875131 5.1 2.847-3.3041705-1.12930553-6.8898295-1.12930553-10.194 0 1.0910494-1.76643535 3.017785-2.84327403 5.094-2.847zm0 4c7.7285595.00826732 13.9917327 6.2714405 14 14v1.557c-.605439-.3598272-1.2957218-.552071-2-.557v-2.86c-.0011353-2.6325591-1.4505922-5.0509798-3.7716999-6.2930861s-5.1373591-1.106416-7.3283001.3530861c-.5442134.365907-1.2557866.365907-1.8 0-2.190941-1.4595021-5.0071924-1.5951924-7.32830013-.3530861-2.32110769 1.2421063-3.77056457 3.660527-3.77169987 6.2930861v2.86c-.70434563.0044474-1.39475221.1967256-2 .557v-1.557c.00826732-7.7285595 6.27144053-13.99173268 14-14zm-1.278 14c-.3544126-.6167513-1.0106732-.997855-1.722-1h-7v-.86c.00038577-1.8956353 1.04391155-3.6372475 2.71526145-4.5316874 1.67134985-.8944399 3.69929925-.7965587 5.27673855.2546874 1.214965.8138679 2.801035.8138679 4.016 0 1.5774393-1.0512461 3.6053887-1.1491273 5.2767386-.2546874s2.7148756 2.6360521 2.7152614 4.5316874v.86h-7c-.7113268.002145-1.3675874.3832487-1.722 1zm-8.722 1h7v1c0 1.6568542-1.3431458 3-3 3h-1c-1.65685425 0-3-1.3431458-3-3zm13 0h7v1c0 1.6568542-1.3431458 3-3 3h-1c-1.6568542 0-3-1.3431458-3-3zm-8 13c-2.76005315-.0033061-4.99669388-2.2399468-5-5 0-1.1045695-.8954305-2-2-2-.25712152-.001725-.51171746-.0508814-.751-.145-.56509385-.2175359-.99655236-.685966-1.167-1.267-.18608483-.6174298-.0652567-1.2866318.325-1.8.37739213-.4987352.96757658-.7906783 1.593-.788h.1c.47843265 2.3264168 2.52489917 3.9970017 4.9 4h1c2.7600532-.0033061 4.9966939-2.2399468 5-5h2c.0033061 2.7600532 2.2399468 4.9966939 5 5h1c2.3751008-.0029983 4.4215673-1.6735832 4.9-4h.1c.6259503-.0019688 1.216234.291135 1.593.791.3902567.5133682.5110848 1.1825702.325 1.8-.1704476.581034-.6019062 1.0494641-1.167 1.267-.2394768.0930932-.4940664.1412313-.751.142-1.1045695 0-2 .8954305-2 2-.0033061 2.7600532-2.2399468 4.9966939-5 5-.3663163.0098337-.7008328.2104677-.882.529-.035.06-.879 1.471-4.118 1.471-1.5878554-.0433315-3.1089389-.6481509-4.293-1.707-.1874927-.1875494-.4418052-.2929434-.707-.293zm5 4c.452613-.0007105.9047698-.0287616 1.354-.084.4675611.8836106 1.0259084 1.7161043 1.666 2.484.037.659.067 1.355.084 2.092-2.0147725.6720252-4.1932275.6720252-6.208 0 .017-.737.047-1.433.084-2.092.6503628-.7819804 1.2164903-1.6303337 1.689-2.531.439053.0820081.8843835.1258386 1.331.131zm-14 11c.00495988-4.4162219 3.58377808-7.9950401 8-8h.947c-.143 3.316-.306 12.575 2.022 17h-4.969v-11c0-.5522847-.44771525-1-1-1s-1 .4477153-1 1v11h-4z"/><path id="Shape" d="m57.78 34.116c.3754332-.9235218.265894-1.9734093-.2920881-2.799544-.5579822-.8261347-1.4910011-1.3198332-2.4879119-1.316456h-1.025c3.4560945-2.5752544 4.8733309-7.0751632 3.5167567-11.1661571-1.3565742-4.0909938-5.1817075-6.852532-9.4917567-6.852532s-8.1351825 2.7615382-9.4917567 6.852532c-1.3565742 4.0909939.0606622 8.5909027 3.5167567 11.1661571h-1.025c-1.5029808-.0026678-2.7748443 1.1097266-2.9723562 2.5996754-.1975119 1.4899489.7405916 2.8953028 2.1923562 3.2843246-.280406.6751418-.2932777 1.4317105-.036 2.116h-3.184c-1.6568542 0-3 1.3431458-3 3s1.3431458 3 3 3h1.184c-.2572777.6842895-.244406 1.4408582.036 2.116-1.3090101.3459182-2.220876 1.530055-2.220876 2.884s.9118659 2.5380818 2.220876 2.884c-.4336915 1.0593464-.2154059 2.2739497.56 3.116-.7990291.8759347-1.0043504 2.1415341-.5232243 3.2251516.4811262 1.0836174 1.5576099 1.7800954 2.7432243 1.7748484h14c1.1856144.005247 2.2620981-.691231 2.7432243-1.7748484.4811261-1.0836175.2758048-2.3492169-.5232243-3.2251516.7036895-.7684364.953736-1.8491829.6590663-2.8486043s-1.0910452-1.7716406-2.0990663-2.0353957c.2932883-.7150961.2932883-1.5169039 0-2.232 1.4517646-.3890218 2.3898681-1.7943757 2.1923562-3.2843246-.1975119-1.4899488-1.4693754-2.6023432-2.9723562-2.5996754h-1.184c.2453699-.6440893.2453699-1.3559107 0-2h3.184c1.5029808.0026678 2.7748443-1.1097266 2.9723562-2.5996754.1975119-1.4899489-.7405916-2.8953028-2.1923562-3.2843246zm-17.78-12.116c0-4.418278 3.581722-8 8-8s8 3.581722 8 8-3.581722 8-8 8c-4.4162219-.0049599-7.9950401-3.5837781-8-8zm1 10h14c.5522847 0 1 .4477153 1 1s-.4477153 1-1 1h-14c-.5522847 0-1-.4477153-1-1s.4477153-1 1-1zm-2 16h14c.5522847 0 1 .4477153 1 1s-.4477153 1-1 1h-14c-.5522847 0-1-.4477153-1-1s.4477153-1 1-1zm16 10h-14c-.5522847 0-1-.4477153-1-1s.4477153-1 1-1h14c.5522847 0 1 .4477153 1 1s-.4477153 1-1 1zm0-4h-14c-.5522847 0-1-.4477153-1-1s.4477153-1 1-1h14c.5522847 0 1 .4477153 1 1s-.4477153 1-1 1zm1-9c0 .5522847-.4477153 1-1 1h-14c-.5522847 0-1-.4477153-1-1s.4477153-1 1-1h14c.5522847 0 1 .4477153 1 1zm-4-4c0 .5522847-.4477153 1-1 1h-14c-.5522847 0-1-.4477153-1-1s.4477153-1 1-1h14c.5522847 0 1 .4477153 1 1zm5-3h-14c-.5522847 0-1-.4477153-1-1s.4477153-1 1-1h14c.5522847 0 1 .4477153 1 1s-.4477153 1-1 1z"/><path id="Shape" d="m48 21c-.4851707-.000473-.9000069-.3491365-.9839455-.8269912-.0839386-.4778548.1872399-.9470217.6432053-1.1128119.4559653-.1657902.9651545.0196329 1.2077402.4398031.1727115.3209394.5063525.5225002.8707953.5260692.3644429.003569.7019673-.1914191.880931-.5089145s.1710225-.7072132-.0207263-1.0171547c-.3625283-.608365-.9285888-1.0688648-1.598-1.3v-.2c0-.5522847-.4477153-1-1-1s-1 .4477153-1 1v.184c-1.3765475.4848523-2.2026937 1.8918441-1.9553873 3.330178s1.49595 2.4885874 2.9553873 2.485822c.4851707.000473.9000069.3491365.9839455.8269912.0839386.4778548-.1872399.9470217-.6432053 1.1128119-.4559653.1657902-.9651545-.0196329-1.2077402-.4398031-.2843876-.4596821-.882589-.61017-1.3506397-.3397768s-.6365131.8637835-.3803603 1.3397768c.3630242.6087308.9298468 1.0692742 1.6 1.3v.2c0 .5522847.4477153 1 1 1s1-.4477153 1-1v-.184c1.3769108-.4849733 2.2030823-1.8925391 1.9552305-3.3311676-.2478517-1.4386286-1.4974125-2.4885802-2.9572305-2.4848324z"/></g></g></svg>