<?xml version="1.0"?>
<svg xmlns="http://www.w3.org/2000/svg" viewBox="0 0 512 512" width="512" height="512"><g id="Outline"><path d="M407.355,225.594A32.056,32.056,0,0,0,376,200H304V147.739a48,48,0,0,0,79.393-28.064A16,16,0,0,0,395.038,98.06L383.516,69.247c-.46-1.375-.925-2.669-1.392-3.929A27.983,27.983,0,0,0,364,16H312a47.778,47.778,0,0,0-31.318,11.67,31.99,31.99,0,1,0-14.764,50.751,56.7,56.7,0,0,0,3.555,9.688c-.345.027-.689.056-1.031.094C266.251,87.994,168,88,168,88a40.045,40.045,0,0,0-40,40V231.831a26.128,26.128,0,0,0-1.919,7.055L123.94,256H88a8,8,0,0,0-8,8v80a24.028,24.028,0,0,0,24,24h36.232l-4.1,22.568A8,8,0,0,0,144,400h11.056l-34.211,68.422a8,8,0,0,0,4.625,11.168L171.413,494.9a21.338,21.338,0,0,0,6.755,1.1h5.574a21.362,21.362,0,0,0,15.106-36.467l-12.4-12.4L220.117,400H232v88a8,8,0,0,0,8,8h50.522a21.476,21.476,0,0,0,5.209-42.312l-14.913-3.729L287.062,400H288a8,8,0,0,0,7.938-8.992L280.062,264l1-8H322.33A56.172,56.172,0,0,0,320,272v16a8,8,0,0,0,8,8h32a8,8,0,0,0,8-8V272a8,8,0,0,1,16,0V488a8,8,0,0,0,8,8h32a8,8,0,0,0,8-8V272A56.212,56.212,0,0,0,407.355,225.594ZM376,104a8,8,0,0,0-8,8,32,32,0,0,1-63.948,1.784L324.944,72H344V88h16V72l7.456-.221L380.18,104ZM312,32h52a12,12,0,0,1,0,24H320a8,8,0,0,0-7.155,4.422L294.634,96.845,288,88a40.246,40.246,0,0,1-8-24A32.036,32.036,0,0,1,312,32ZM264.056,61.807a16,16,0,1,1,6.085-21.258A47.661,47.661,0,0,0,264.056,61.807ZM240.805,224H171.3A88.649,88.649,0,0,1,182.7,198.975c.836-1.282,57.3-77.741,57.3-77.741V216A40.028,40.028,0,0,0,240.805,224ZM184,170.073V144h19.274ZM144,128a24.028,24.028,0,0,1,24-24h64.837c-.241.326-.488.646-.72.981L215.1,128H176a8,8,0,0,0-8,8v48H144Zm0,72h19.626a104.338,104.338,0,0,0-6.772,16.469,25.819,25.819,0,0,0-12.854.787Zm8,103.279L143.142,352H104a8.009,8.009,0,0,1-8-8V272h25.939l-1.877,15.008,15.876,1.984L138.064,272H152ZM152,256H140.065l1.894-15.137c.036-.293.1-.578.158-.863h10.206C152.116,242.674,152,256,152,256Zm15.871,49.431c.086-.472.252-62.756.5-65.431h79.655a40.193,40.193,0,0,0,17.268,13.185l-1.228,9.822a7.943,7.943,0,0,0,0,1.985L278.938,384H153.586Zm20.667,171.605a5.333,5.333,0,0,1-4.8,2.964h-5.574c-.577,0-38.888-12.673-38.888-12.673l9-18.01,23.625,5.907,15.623,15.624A5.353,5.353,0,0,1,188.538,477.036Zm-15.882-38.118-17.041-4.261L172.944,400h27.51ZM296,474.522A5.484,5.484,0,0,1,290.522,480H248V464h23.015l20.836,5.209A5.47,5.47,0,0,1,296,474.522ZM264.938,448H248V400h22.938ZM280,240a24.028,24.028,0,0,1-24-24V120a16,16,0,0,1,32,0v88a8,8,0,0,0,8,8h48v24Zm72,32v8H336v-8a40.027,40.027,0,0,1,3.345-16h17.342l.761.762A23.86,23.86,0,0,0,352,272Zm40-24H371.313l-5.656-5.657A8,8,0,0,0,360,240V216h16a16.019,16.019,0,0,1,16,16Zm24,232H400V272a23.889,23.889,0,0,0-1.376-8H400a8,8,0,0,0,8-8v-7.959A40.081,40.081,0,0,1,416,272Z"/></g></svg>
