<?xml version="1.0" encoding="iso-8859-1"?>
<!-- Generator: Adobe Illustrator 19.0.0, SVG Export Plug-In . SVG Version: 6.00 Build 0)  -->
<svg version="1.1" id="Layer_1" xmlns="http://www.w3.org/2000/svg" xmlns:xlink="http://www.w3.org/1999/xlink" x="0px" y="0px"
	 viewBox="0 0 512.001 512.001" style="enable-background:new 0 0 512.001 512.001;" xml:space="preserve">
<g>
	<g>
		<path d="M345.756,331.607c-4.004-2.161-9.001-0.667-11.163,3.337c-2.161,4.004-0.667,9.002,3.337,11.163
			c21.625,11.67,35.057,34.168,35.057,58.716v90.701h-33.509V405.69c0-4.55-3.689-8.239-8.239-8.239s-8.239,3.689-8.239,8.239
			v89.833H188.987V405.69c0-4.55-3.689-8.239-8.239-8.239c-4.55,0-8.239,3.689-8.239,8.239v89.833h-33.498v-36.746
			c0-4.55-3.689-8.239-8.239-8.239c-4.55,0-8.239,3.689-8.239,8.239v44.985c0,4.55,3.689,8.239,8.239,8.239h250.453
			c4.55,0,8.239-3.689,8.239-8.239v-98.94C389.464,374.211,372.716,346.156,345.756,331.607z"/>
	</g>
</g>
<g>
	<g>
		<path d="M304.476,360.247c-4.55,0-8.239,3.689-8.239,8.239c0,22.185-18.049,40.234-40.234,40.234s-40.234-18.049-40.234-40.234
			c0-4.55-3.689-8.239-8.239-8.239s-8.239,3.689-8.239,8.239c0,31.27,25.441,56.711,56.711,56.711s56.711-25.441,56.711-56.711
			C312.715,363.935,309.026,360.247,304.476,360.247z"/>
	</g>
</g>
<g>
	<g>
		<path d="M404.498,211.758c-0.001-17.417-13.226-31.801-30.163-33.657l-1.904-19.706c-2.802-29.002-16.226-55.761-37.796-75.349
			c-5.699-5.175-11.845-9.728-18.336-13.638c0.393-2.803,0.614-5.642,0.614-8.498C316.913,27.325,289.589,0,256.003,0
			c-28.814,0-53.915,20.458-59.683,48.644c-0.913,4.458,1.962,8.811,6.419,9.724c4.46,0.913,8.811-1.962,9.724-6.419
			c4.206-20.552,22.518-35.47,43.54-35.47c24.5,0,44.433,19.933,44.433,44.433c0,0.17-0.013,0.339-0.015,0.509
			c-13.963-5.733-29.023-8.747-44.421-8.747c-29.137,0-57.064,10.787-78.634,30.374c-21.571,19.587-34.994,46.347-37.796,75.349
			l-1.904,19.705c-16.937,1.851-30.162,16.238-30.162,33.659c0,15.241,9.997,28.151,23.922,32.392
			c-1.303,30.403,12.803,59.9,37.568,77.893l7.008,5.091c-31.671,12.093-53.465,42.808-53.465,77.686v26.493
			c0,4.55,3.689,8.239,8.239,8.239c4.55,0,8.239-3.689,8.239-8.239v-26.493c0-31.843,22.639-59.362,53.83-65.434
			c0.005-0.001,0.011-0.003,0.016-0.004l21.225,15.42c12.536,9.107,27.227,13.662,41.917,13.662c14.69,0,29.381-4.554,41.917-13.662
			l45.092-32.761c24.765-17.993,38.871-47.493,37.567-77.896C394.502,239.904,404.498,226.996,404.498,211.758z M132.942,226.978
			c-5.362-2.965-8.963-8.667-8.963-15.219c0-7.718,5.057-14.269,12.031-16.535L132.942,226.978z M188.442,95.246
			c18.532-16.828,42.525-26.095,67.557-26.095s49.025,9.268,67.557,26.095c18.534,16.829,30.065,39.818,32.473,64.734l0.367,3.797
			c-40.655-5.938-64.292-49.731-64.537-50.196c-1.416-2.696-4.201-4.391-7.244-4.408c-3.052-0.051-5.851,1.643-7.297,4.32
			c-0.263,0.487-26.667,47.142-120.219,38.413C160.995,130.128,171.93,110.239,188.442,95.246z M155.168,168.278
			c77.116,7.315,114.1-20.377,128.723-36.39c11.199,16.151,36.35,45.208,74.13,48.69l1.912,19.796l-20.522,17.705
			c-5.958-13.923-19.791-23.704-35.869-23.704c-18.675,0-34.32,13.199-38.112,30.757h-18.862
			c-3.792-17.558-19.436-30.757-38.112-30.757c-16.077,0-29.91,9.781-35.869,23.704l-20.522-17.705L155.168,168.278z
			 M326.061,233.37c0,12.417-10.102,22.519-22.519,22.519s-22.519-10.102-22.519-22.519s10.102-22.519,22.519-22.519
			S326.061,220.953,326.061,233.37z M230.975,233.37c0,12.417-10.102,22.519-22.519,22.519s-22.519-10.102-22.519-22.519
			s10.102-22.519,22.519-22.519S230.975,220.953,230.975,233.37z M333.323,308.714l-45.091,32.761
			c-19.279,14.006-45.185,14.007-64.464,0l-45.091-32.761c-21.372-15.527-33.069-41.507-30.528-67.8l1.976-20.454l19.534,16.854
			c1.984,19.657,18.626,35.051,38.797,35.051c18.675,0,34.32-13.199,38.112-30.757h12.486v20.293h-8.239
			c-4.55,0-8.239,3.689-8.239,8.239c0,4.55,3.689,8.239,8.239,8.239h16.477c4.55,0,8.239-3.689,8.239-8.239v-9.681
			c7.094,7.333,17.026,11.906,28.011,11.906c20.171,0,36.813-15.394,38.797-35.051l19.534-16.854l1.976,20.454
			C366.391,267.207,354.694,293.187,333.323,308.714z M379.057,226.975l-3.068-31.748c6.972,2.268,12.029,8.817,12.029,16.532
			C388.02,218.308,384.419,224.009,379.057,226.975z"/>
	</g>
</g>
<g>
	<g>
		<path d="M283.572,291.252c-3.217-3.217-8.434-3.217-11.652,0c-4.253,4.253-9.907,6.595-15.921,6.595
			c-6.014,0-11.669-2.342-15.921-6.595c-3.217-3.217-8.434-3.216-11.65,0c-3.217,3.217-3.217,8.434,0,11.651
			c7.365,7.365,17.157,11.421,27.573,11.421c10.415,0,20.208-4.056,27.572-11.421C286.79,299.686,286.79,294.47,283.572,291.252z"/>
	</g>
</g>
<g>
	<g>
		<path d="M310.131,219.639h-13.177c-4.55,0-8.239,3.689-8.239,8.239c0,4.55,3.689,8.239,8.239,8.239h13.177
			c4.55,0,8.239-3.689,8.239-8.239C318.37,223.328,314.681,219.639,310.131,219.639z"/>
	</g>
</g>
<g>
	<g>
		<path d="M215.045,219.639h-13.177c-4.55,0-8.239,3.689-8.239,8.239c0,4.55,3.689,8.239,8.239,8.239h13.177
			c4.55,0,8.239-3.689,8.239-8.239C223.284,223.328,219.595,219.639,215.045,219.639z"/>
	</g>
</g>
<g>
</g>
<g>
</g>
<g>
</g>
<g>
</g>
<g>
</g>
<g>
</g>
<g>
</g>
<g>
</g>
<g>
</g>
<g>
</g>
<g>
</g>
<g>
</g>
<g>
</g>
<g>
</g>
<g>
</g>
</svg>
